# xmcd CD database file generated by Grip 3.2.0
# 
# Track frame offsets:
#       172
#       15917
#       31910
#       48857
#       65352
#       82735
#       100762
#       113335
#       127087
#       164570
#       177125
#       194927
#       209580
#       224295
#       243450
#       257600
#       273765
#       289925
#       307805
# 
# Disc length: 4342 seconds
# 
# Revision: 2
# Processed by: cddbd v1.5.2PL0 Copyright (c) Steve Scherf et al.
# Submitted via: Grip 3.2.0
# 
DISCID=0410f413
DTITLE=Diana Ross - Touch Me in the Morning - Baby It's Me
DYEAR=1970
DGENRE=Blues
TTITLE0=Touch Me in the Morning
TTITLE1=All of My Life
TTITLE2=We Need You
TTITLE3=Leave a Little Room
TTITLE4=I Won't Last a Day Without You
TTITLE5=Little Girl Blue
TTITLE6=My Baby (My Own)
TTITLE7=Imagine
TTITLE8=Medley: Brown Baby/Save the Children
TTITLE9=Gettin' Ready for Love
TTITLE10=You Got It
TTITLE11=Baby It's Me
TTITLE12=Too Shy to Say
TTITLE13=Your Love is so Good for Me
TTITLE14=Top of the World
TTITLE15=All Night Lover
TTITLE16=Confide in Me
TTITLE17=The Same Love that Made Me Love
TTITLE18=Come in From the Rain
EXTD=
EXTT0=
EXTT1=
EXTT2=
EXTT3=
EXTT4=
EXTT5=
EXTT6=
EXTT7=
EXTT8=
EXTT9=
EXTT10=
EXTT11=
EXTT12=
EXTT13=
EXTT14=
EXTT15=
EXTT16=
EXTT17=
EXTT18=
PLAYORDER=
